<?xml version="1.0" encoding="UTF-8"?>
<svg id="_Слой_1" data-name="Слой 1" xmlns="http://www.w3.org/2000/svg" viewBox="0 0 328.99 117.99">
  <defs>
    <style>
      .cls-1 {
        fill: #fff;
        stroke-width: 0px;
      }
    </style>
  </defs>
  <g>
    <polygon class="cls-1" points="48.1 34.48 0 12.4 0 0 48.1 22.06 48.1 34.48"/>
    <polygon class="cls-1" points="48.1 47.3 96.18 25.22 96.19 12.82 48.1 34.88 48.1 47.3"/>
  </g>
  <g>
    <path class="cls-1" d="m130.88,97.89h-10.85v19.3h-11.02v-47.9h11.02v19.37h11.12l12.59-19.37h11.7l-15.67,23.13,16.15,24.77h-12.59l-12.45-19.3Z"/>
    <path class="cls-1" d="m165.2,69.29h44.59v8.83h-33.57v9.85h19.2c5.8,0,10.21,1.21,13.24,3.63,3.04,2.42,4.55,5.91,4.55,10.47,0,4.79-1.69,8.51-5.06,11.16-3.38,2.65-8.15,3.97-14.3,3.97h-28.65v-47.91Zm28.03,39.69c2.83,0,5-.56,6.5-1.68,1.51-1.12,2.26-2.75,2.26-4.89,0-4.2-2.92-6.3-8.76-6.3h-17.01v12.87h17.01Z"/>
    <path class="cls-1" d="m276.01,96.46c1.55,1.96,2.33,4.38,2.33,7.25,0,4.24-1.61,7.55-4.82,9.92-3.22,2.37-7.81,3.56-13.79,3.56h-27.36v-47.9h26.06c5.56,0,9.9,1.07,13,3.22s4.65,5.2,4.65,9.17c0,2.38-.59,4.46-1.78,6.26-1.19,1.8-2.85,3.23-5,4.28,2.92.86,5.16,2.28,6.71,4.24Zm-32.63-7.32h14.08c2.41,0,4.24-.49,5.47-1.47,1.24-.98,1.85-2.43,1.85-4.34s-.63-3.31-1.88-4.31c-1.26-1-3.07-1.51-5.44-1.51h-14.08v11.63Zm23.73,13.68c0-3.97-2.6-5.95-7.8-5.95h-15.93v12.12h15.93c5.2,0,7.8-2.06,7.8-6.17Z"/>
    <path class="cls-1" d="m96.19,69.29v47.9h-11.09v-19.64h-25.84v19.64h-11.09v-47.9h11.09v18.89h25.84v-18.89h11.09Z"/>
    <path class="cls-1" d="m302.74,79.86c2.07-1.16,4.43-1.71,6.99-1.84h0s19.26-.01,19.26-.01v-9.52h-19.26c-4.77.06-9.07,1.1-12.91,3.16-3.95,2.12-7.05,5.06-9.31,8.83-2.26,3.76-3.39,8.02-3.39,12.76s1.13,9,3.39,12.76,5.36,6.71,9.31,8.83c3.85,2.07,8.16,3.12,12.91,3.16h19.26v-9.52h-19.26v-.02c-2.56-.13-4.92-.69-6.99-1.84-2.33-1.3-4.14-3.11-5.44-5.44-1.3-2.33-1.95-4.97-1.95-7.94s.65-5.61,1.95-7.94c1.3-2.31,3.12-4.13,5.44-5.43Z"/>
  </g>
</svg>