<?xml version="1.0" encoding="utf-8"?>
<!-- Generator: Adobe Illustrator 27.2.0, SVG Export Plug-In . SVG Version: 6.00 Build 0)  -->
<svg version="1.1" id="Слой_1" xmlns="http://www.w3.org/2000/svg" xmlns:xlink="http://www.w3.org/1999/xlink" x="0px" y="0px"
	 viewBox="0 0 595.28 841.89" style="enable-background:new 0 0 595.28 841.89;" xml:space="preserve">
<style type="text/css">
	.st0{fill:#FFFFFFFF;}
</style>
<g>
	<g>
		<polygon class="st0" points="161.61,366.68 113.52,344.6 113.51,332.2 161.61,354.26 		"/>
		<polygon class="st0" points="161.61,379.5 209.69,357.42 209.7,345.02 161.61,367.08 		"/>
	</g>
	<g>
		<path d="M244.39,430.09h-10.85v19.3h-11.02v-47.9h11.02v19.37h11.12l12.59-19.37h11.7l-15.67,23.13l16.15,24.77h-12.59
			L244.39,430.09z"/>
		<path d="M278.71,401.49h44.59v8.83h-33.57v9.85h19.2c5.8,0,10.21,1.21,13.24,3.63c3.04,2.42,4.55,5.91,4.55,10.47
			c0,4.79-1.69,8.51-5.06,11.16c-3.38,2.65-8.15,3.97-14.3,3.97h-28.65V401.49z M306.74,441.18c2.83,0,5-0.56,6.5-1.68
			c1.51-1.12,2.26-2.75,2.26-4.89c0-4.2-2.92-6.3-8.76-6.3h-17.01v12.87H306.74z"/>
		<path d="M389.52,428.66c1.55,1.96,2.33,4.38,2.33,7.25c0,4.24-1.61,7.55-4.82,9.92c-3.22,2.37-7.81,3.56-13.79,3.56h-27.36v-47.9
			h26.06c5.56,0,9.9,1.07,13,3.22s4.65,5.2,4.65,9.17c0,2.38-0.59,4.46-1.78,6.26c-1.19,1.8-2.85,3.23-5,4.28
			C385.73,425.28,387.97,426.7,389.52,428.66z M356.89,421.34h14.08c2.41,0,4.24-0.49,5.47-1.47c1.24-0.98,1.85-2.43,1.85-4.34
			c0-1.87-0.63-3.31-1.88-4.31c-1.26-1-3.07-1.51-5.44-1.51h-14.08V421.34z M380.62,435.02c0-3.97-2.6-5.95-7.8-5.95h-15.93v12.12
			h15.93C378.02,441.18,380.62,439.13,380.62,435.02z"/>
		<path d="M209.7,401.49v47.9h-11.09v-19.64h-25.84v19.64h-11.09v-47.9h11.09v18.89h25.84v-18.89H209.7z"/>
		<path d="M416.25,412.06c2.07-1.16,4.43-1.71,6.99-1.84v-0.01h19.26v-9.52h-19.26c-4.77,0.06-9.07,1.1-12.91,3.16
			c-3.95,2.12-7.05,5.06-9.31,8.83c-2.26,3.76-3.39,8.02-3.39,12.76c0,4.75,1.13,9,3.39,12.76c2.26,3.76,5.36,6.71,9.31,8.83
			c3.85,2.07,8.16,3.12,12.91,3.16h19.26v-9.52h-19.26v-0.02c-2.56-0.13-4.92-0.69-6.99-1.84c-2.33-1.3-4.14-3.11-5.44-5.44
			c-1.3-2.33-1.95-4.97-1.95-7.94c0-2.96,0.65-5.61,1.95-7.94C412.11,415.18,413.93,413.36,416.25,412.06z"/>
	</g>
</g>
</svg>
